<?xml version="1.0" encoding="UTF-8"?> <svg xmlns="http://www.w3.org/2000/svg" id="Layer_2" data-name="Layer 2" viewBox="0 0 313.3 143.55"><defs><style>.cls-1{fill:#00adb1;}.cls-2{fill:#004b87;}</style></defs><title>HUS_LOGO_RGB</title><path class="cls-1" d="M259.64,1.92a32.07,32.07,0,0,1,9.12,6.31c3,2.9,6.89,9.21,8.59,11.17,0,0,17-14.53,17-14.53,7.29,11.54,17,10.51,17,10.51L294.65,29.46c3.53.59,12.16-1.2,20.74,4.3,0,0-17.84,15.09-17.88,15.06-8.59-5.94-18.73-4.33-20.39-4.47,0,0-14.3,11.89-14.3,11.89s-9.62,4.07-19.14-8.58c0,0,16.17-13.34,16.14-13.37-2-1.83-6.53-11.85-18.06-17.21Z" transform="translate(-2.09 -1.92)"></path><polygon class="cls-2" points="54.44 45.88 54.44 83.91 18.88 83.91 18.88 45.88 0 45.88 0 141.64 18.88 141.64 18.88 101.97 54.44 101.97 54.44 141.64 73.18 141.64 73.18 45.88 54.44 45.88"></polygon><path class="cls-2" d="M126.4,145.48c21.06,0,36.66-12.59,36.66-33.24V47.81H144.18v62.92c0,9.3-4.92,16.28-17.78,16.28s-17.79-7-17.79-16.28V47.81H89.87v64.43c0,20.65,15.6,33.24,36.53,33.24" transform="translate(-2.09 -1.92)"></path><path class="cls-2" d="M209.69,145.48c20.38,0,34.74-10.95,34.74-28.87,0-19.56-16.14-24.62-31.32-29.41-14.5-4.37-18.19-7.52-18.19-13.4,0-5.47,4.65-9.58,12.58-9.58,9.71,0,14.91,5.06,18.33,12.31l15.87-9.16C235.27,54,223.23,45.89,207.5,45.89c-16.41,0-31.46,10.4-31.46,28.46s14.22,24.34,28.86,28.59c14.23,4.1,20.66,6.84,20.66,14,0,5.33-4,10.12-15.32,10.12-11.91,0-18.61-5.74-22-14.64l-16.14,9.44c5.2,14.23,18.06,23.67,37.62,23.67" transform="translate(-2.09 -1.92)"></path></svg> 